<?xml version="1.0" encoding="UTF-8"?>
<!DOCTYPE svg PUBLIC "-//W3C//DTD SVG 1.1//EN" "http://www.w3.org/Graphics/SVG/1.1/DTD/svg11.dtd">
<svg width="213mm" height="149mm" viewBox="0 0 21300 14900" version="1.1" xmlns="http://www.w3.org/2000/svg" stroke-width="28.222" stroke-linejoin="round" xml:space="preserve">
 <path fill="rgb(255,255,255)" stroke="none" d="M 10675,0 L 25,14875 25,14875 21325,0 21325,0 10675,14875 Z"/>
 <path fill="none" stroke="rgb(179,179,179)" stroke-linejoin="round" d="M 11194,0 L 1999,13092 1999,13092 20390,947 20390,947 11194,13092 Z"/>
 <path fill="none" stroke="rgb(179,179,179)" stroke-linejoin="round" d="M 20390,0 L 1999,13091"/>
 <path fill="none" stroke="rgb(179,179,179)" stroke-linejoin="round" d="M 20390,0 L 1999,10661"/>
 <path fill="none" stroke="rgb(179,179,179)" stroke-linejoin="round" d="M 20390,0 L 1999,8232"/>
 <path fill="none" stroke="rgb(179,179,179)" stroke-linejoin="round" d="M 20390,0 L 1999,5804"/>
 <path fill="none" stroke="rgb(179,179,179)" stroke-linejoin="round" d="M 20390,0 L 1999,3375"/>
 <path fill="none" stroke="rgb(179,179,179)" stroke-linejoin="round" d="M 20390,0 L 1999,946"/>
 <path fill="none" stroke="rgb(179,179,179)" stroke-linejoin="round" d="M 1999,0 L 1999,13241"/>
 <path fill="none" stroke="rgb(179,179,179)" stroke-linejoin="round" d="M 1999,0 L 1999,13241"/>
 <path fill="none" stroke="rgb(179,179,179)" stroke-linejoin="round" d="M 4042,0 L 4042,13241"/>
 <path fill="none" stroke="rgb(179,179,179)" stroke-linejoin="round" d="M 4042,0 L 4042,13241"/>
 <path fill="none" stroke="rgb(179,179,179)" stroke-linejoin="round" d="M 6086,0 L 6086,13241"/>
 <path fill="none" stroke="rgb(179,179,179)" stroke-linejoin="round" d="M 6086,0 L 6086,13241"/>
 <path fill="none" stroke="rgb(179,179,179)" stroke-linejoin="round" d="M 8129,0 L 8129,13241"/>
 <path fill="none" stroke="rgb(179,179,179)" stroke-linejoin="round" d="M 8129,0 L 8129,13241"/>
 <path fill="none" stroke="rgb(179,179,179)" stroke-linejoin="round" d="M 10173,0 L 10173,13241"/>
 <path fill="none" stroke="rgb(179,179,179)" stroke-linejoin="round" d="M 10173,0 L 10173,13241"/>
 <path fill="none" stroke="rgb(179,179,179)" stroke-linejoin="round" d="M 12215,0 L 12215,13241"/>
 <path fill="none" stroke="rgb(179,179,179)" stroke-linejoin="round" d="M 12215,0 L 12215,13241"/>
 <path fill="none" stroke="rgb(179,179,179)" stroke-linejoin="round" d="M 14259,0 L 14259,13241"/>
 <path fill="none" stroke="rgb(179,179,179)" stroke-linejoin="round" d="M 14259,0 L 14259,13241"/>
 <path fill="none" stroke="rgb(179,179,179)" stroke-linejoin="round" d="M 16302,0 L 16302,13241"/>
 <path fill="none" stroke="rgb(179,179,179)" stroke-linejoin="round" d="M 16302,0 L 16302,13241"/>
 <path fill="none" stroke="rgb(179,179,179)" stroke-linejoin="round" d="M 18346,0 L 18346,13241"/>
 <path fill="none" stroke="rgb(179,179,179)" stroke-linejoin="round" d="M 18346,0 L 18346,13241"/>
 <path fill="none" stroke="rgb(179,179,179)" stroke-linejoin="round" d="M 20390,0 L 20390,13241"/>
 <path fill="none" stroke="rgb(179,179,179)" stroke-linejoin="round" d="M 20390,0 L 20390,13241"/>
 <path fill="none" stroke="rgb(179,179,179)" stroke-linejoin="round" d="M 1999,0 L 20390,13091"/>
 <path fill="none" stroke="rgb(179,179,179)" stroke-linejoin="round" d="M 1849,0 L 1999,13091"/>
 <path fill="none" stroke="rgb(179,179,179)" stroke-linejoin="round" d="M 1849,0 L 1999,13091"/>
 <path fill="none" stroke="rgb(179,179,179)" stroke-linejoin="round" d="M 1849,0 L 1999,10661"/>
 <path fill="none" stroke="rgb(179,179,179)" stroke-linejoin="round" d="M 1849,0 L 1999,10661"/>
 <path fill="none" stroke="rgb(179,179,179)" stroke-linejoin="round" d="M 1849,0 L 1999,8232"/>
 <path fill="none" stroke="rgb(179,179,179)" stroke-linejoin="round" d="M 1849,0 L 1999,8232"/>
 <path fill="none" stroke="rgb(179,179,179)" stroke-linejoin="round" d="M 1849,0 L 1999,5804"/>
 <path fill="none" stroke="rgb(179,179,179)" stroke-linejoin="round" d="M 1849,0 L 1999,5804"/>
 <path fill="none" stroke="rgb(179,179,179)" stroke-linejoin="round" d="M 1849,0 L 1999,3375"/>
 <path fill="none" stroke="rgb(179,179,179)" stroke-linejoin="round" d="M 1849,0 L 1999,3375"/>
 <path fill="none" stroke="rgb(179,179,179)" stroke-linejoin="round" d="M 1849,0 L 1999,946"/>
 <path fill="none" stroke="rgb(179,179,179)" stroke-linejoin="round" d="M 1849,0 L 1999,946"/>
 <path fill="none" stroke="rgb(179,179,179)" stroke-linejoin="round" d="M 1999,0 L 1999,13091"/>
 <path fill="none" stroke="rgb(255,66,14)" stroke-width="80" stroke-linejoin="round" d="M 2407,0 L 2816,12613 3633,12125 5268,11173 8538,9453 10173,6224 10989,4717 15076,4221 18346,3192"/>
 <path fill="rgb(255,66,14)" stroke="none" d="M 2282,0 L 2407,12613 2532,12738 2407,12613 2282,12488 Z"/>
 <path fill="none" stroke="rgb(255,66,14)" stroke-linejoin="round" d="M 2282,0 L 2407,12613 2532,12738 2407,12613 2282,12488 Z"/>
 <path fill="rgb(255,66,14)" stroke="none" d="M 2691,0 L 2816,12125 2941,12250 2816,12125 2691,12000 Z"/>
 <path fill="none" stroke="rgb(255,66,14)" stroke-linejoin="round" d="M 2691,0 L 2816,12125 2941,12250 2816,12125 2691,12000 Z"/>
 <path fill="rgb(255,66,14)" stroke="none" d="M 3508,0 L 3633,11173 3758,11298 3633,11173 3508,11048 Z"/>
 <path fill="none" stroke="rgb(255,66,14)" stroke-linejoin="round" d="M 3508,0 L 3633,11173 3758,11298 3633,11173 3508,11048 Z"/>
 <path fill="rgb(255,66,14)" stroke="none" d="M 5143,0 L 5268,9453 5393,9578 5268,9453 5143,9328 Z"/>
 <path fill="none" stroke="rgb(255,66,14)" stroke-linejoin="round" d="M 5143,0 L 5268,9453 5393,9578 5268,9453 5143,9328 Z"/>
 <path fill="rgb(255,66,14)" stroke="none" d="M 8413,0 L 8538,6224 8663,6349 8538,6224 8413,6099 Z"/>
 <path fill="none" stroke="rgb(255,66,14)" stroke-linejoin="round" d="M 8413,0 L 8538,6224 8663,6349 8538,6224 8413,6099 Z"/>
 <path fill="rgb(255,66,14)" stroke="none" d="M 10048,0 L 10173,4717 10298,4842 10173,4717 10048,4592 Z"/>
 <path fill="none" stroke="rgb(255,66,14)" stroke-linejoin="round" d="M 10048,0 L 10173,4717 10298,4842 10173,4717 10048,4592 Z"/>
 <path fill="rgb(255,66,14)" stroke="none" d="M 10864,0 L 10989,4221 11114,4346 10989,4221 10864,4096 Z"/>
 <path fill="none" stroke="rgb(255,66,14)" stroke-linejoin="round" d="M 10864,0 L 10989,4221 11114,4346 10989,4221 10864,4096 Z"/>
 <path fill="rgb(255,66,14)" stroke="none" d="M 14951,0 L 15076,3192 15201,3317 15076,3192 14951,3067 Z"/>
 <path fill="none" stroke="rgb(255,66,14)" stroke-linejoin="round" d="M 14951,0 L 15076,3192 15201,3317 15076,3192 14951,3067 Z"/>
 <path fill="rgb(255,66,14)" stroke="none" d="M 18221,0 L 18346,2377 18471,2502 18346,2377 18221,2252 Z"/>
 <path fill="none" stroke="rgb(255,66,14)" stroke-linejoin="round" d="M 18221,0 L 18346,2377 18471,2502 18346,2377 18221,2252 Z"/>
 <path fill="none" stroke="rgb(255,211,32)" stroke-width="80" stroke-linejoin="round" d="M 2407,0 L 2816,12605 3633,12209 5268,11300 8538,10330 10173,8110 10989,7070 15076,6706 18346,5617"/>
 <path fill="rgb(255,211,32)" stroke="none" d="M 2282,0 L 2407,12480 2532,12730 2282,12480 Z"/>
 <path fill="none" stroke="rgb(255,211,32)" stroke-linejoin="round" d="M 2282,0 L 2407,12480 2532,12730 2282,12480 Z"/>
 <path fill="rgb(255,211,32)" stroke="none" d="M 2691,0 L 2816,12084 2941,12334 2691,12084 Z"/>
 <path fill="none" stroke="rgb(255,211,32)" stroke-linejoin="round" d="M 2691,0 L 2816,12084 2941,12334 2691,12084 Z"/>
 <path fill="rgb(255,211,32)" stroke="none" d="M 3508,0 L 3633,11175 3758,11425 3508,11175 Z"/>
 <path fill="none" stroke="rgb(255,211,32)" stroke-linejoin="round" d="M 3508,0 L 3633,11175 3758,11425 3508,11175 Z"/>
 <path fill="rgb(255,211,32)" stroke="none" d="M 5143,0 L 5268,10205 5393,10455 5143,10205 Z"/>
 <path fill="none" stroke="rgb(255,211,32)" stroke-linejoin="round" d="M 5143,0 L 5268,10205 5393,10455 5143,10205 Z"/>
 <path fill="rgb(255,211,32)" stroke="none" d="M 8413,0 L 8538,7985 8663,8235 8413,7985 Z"/>
 <path fill="none" stroke="rgb(255,211,32)" stroke-linejoin="round" d="M 8413,0 L 8538,7985 8663,8235 8413,7985 Z"/>
 <path fill="rgb(255,211,32)" stroke="none" d="M 10048,0 L 10173,6945 10298,7195 10048,6945 Z"/>
 <path fill="none" stroke="rgb(255,211,32)" stroke-linejoin="round" d="M 10048,0 L 10173,6945 10298,7195 10048,6945 Z"/>
 <path fill="rgb(255,211,32)" stroke="none" d="M 10864,0 L 10989,6581 11114,6831 10864,6581 Z"/>
 <path fill="none" stroke="rgb(255,211,32)" stroke-linejoin="round" d="M 10864,0 L 10989,6581 11114,6831 10864,6581 Z"/>
 <path fill="rgb(255,211,32)" stroke="none" d="M 14951,0 L 15076,5492 15201,5742 14951,5492 Z"/>
 <path fill="none" stroke="rgb(255,211,32)" stroke-linejoin="round" d="M 14951,0 L 15076,5492 15201,5742 14951,5492 Z"/>
 <path fill="rgb(255,211,32)" stroke="none" d="M 18221,0 L 18346,5066 18471,5316 18221,5066 Z"/>
 <path fill="none" stroke="rgb(255,211,32)" stroke-linejoin="round" d="M 18221,0 L 18346,5066 18471,5316 18221,5066 Z"/>
 <path fill="none" stroke="rgb(0,69,134)" stroke-width="80" stroke-linejoin="round" d="M 2407,0 L 2816,12605 3633,12117 5268,11154 8538,9635 10173,6610 10989,5166 15076,4555 18346,2512"/>
 <path fill="rgb(0,69,134)" stroke="none" d="M 2282,0 L 2282,12480 2532,12730 2532,12730 2282,12480 Z"/>
 <path fill="none" stroke="rgb(0,69,134)" stroke-linejoin="round" d="M 2282,0 L 2282,12480 2532,12730 2532,12730 2282,12480 Z"/>
 <path fill="rgb(0,69,134)" stroke="none" d="M 2691,0 L 2691,11992 2941,12242 2941,12242 2691,11992 Z"/>
 <path fill="none" stroke="rgb(0,69,134)" stroke-linejoin="round" d="M 2691,0 L 2691,11992 2941,12242 2941,12242 2691,11992 Z"/>
 <path fill="rgb(0,69,134)" stroke="none" d="M 3508,0 L 3508,11029 3758,11279 3758,11279 3508,11029 Z"/>
 <path fill="none" stroke="rgb(0,69,134)" stroke-linejoin="round" d="M 3508,0 L 3508,11029 3758,11279 3758,11279 3508,11029 Z"/>
 <path fill="rgb(0,69,134)" stroke="none" d="M 5143,0 L 5143,9510 5393,9760 5393,9760 5143,9510 Z"/>
 <path fill="none" stroke="rgb(0,69,134)" stroke-linejoin="round" d="M 5143,0 L 5143,9510 5393,9760 5393,9760 5143,9510 Z"/>
 <path fill="rgb(0,69,134)" stroke="none" d="M 8413,0 L 8413,6485 8663,6735 8663,6735 8413,6485 Z"/>
 <path fill="none" stroke="rgb(0,69,134)" stroke-linejoin="round" d="M 8413,0 L 8413,6485 8663,6735 8663,6735 8413,6485 Z"/>
 <path fill="rgb(0,69,134)" stroke="none" d="M 10048,0 L 10048,5041 10298,5291 10298,5291 10048,5041 Z"/>
 <path fill="none" stroke="rgb(0,69,134)" stroke-linejoin="round" d="M 10048,0 L 10048,5041 10298,5291 10298,5291 10048,5041 Z"/>
 <path fill="rgb(0,69,134)" stroke="none" d="M 10864,0 L 10864,4430 11114,4680 11114,4680 10864,4430 Z"/>
 <path fill="none" stroke="rgb(0,69,134)" stroke-linejoin="round" d="M 10864,0 L 10864,4430 11114,4680 11114,4680 10864,4430 Z"/>
 <path fill="rgb(0,69,134)" stroke="none" d="M 14951,0 L 14951,2387 15201,2637 15201,2637 14951,2387 Z"/>
 <path fill="none" stroke="rgb(0,69,134)" stroke-linejoin="round" d="M 14951,0 L 14951,2387 15201,2637 15201,2637 14951,2387 Z"/>
 <path fill="rgb(0,69,134)" stroke="none" d="M 18221,0 L 18221,2073 18471,2323 18471,2323 18221,2073 Z"/>
 <path fill="none" stroke="rgb(0,69,134)" stroke-linejoin="round" d="M 18221,0 L 18221,2073 18471,2323 18471,2323 18221,2073 Z"/>
 <text class="TextShape"><tspan class="TextParagraph" font-family="Liberation Sans, sans-serif" font-size="353px" font-weight="400"><tspan class="TextPosition" x="1906" y="13659"><tspan fill="rgb(0,0,0)" stroke="none">0</tspan></tspan></tspan></text>
 <text class="TextShape"><tspan class="TextParagraph" font-family="Liberation Sans, sans-serif" font-size="353px" font-weight="400"><tspan class="TextPosition" x="3949" y="13659"><tspan fill="rgb(0,0,0)" stroke="none">5</tspan></tspan></tspan></text>
 <text class="TextShape"><tspan class="TextParagraph" font-family="Liberation Sans, sans-serif" font-size="353px" font-weight="400"><tspan class="TextPosition" x="5901" y="13659"><tspan fill="rgb(0,0,0)" stroke="none">10</tspan></tspan></tspan></text>
 <text class="TextShape"><tspan class="TextParagraph" font-family="Liberation Sans, sans-serif" font-size="353px" font-weight="400"><tspan class="TextPosition" x="7944" y="13659"><tspan fill="rgb(0,0,0)" stroke="none">15</tspan></tspan></tspan></text>
 <text class="TextShape"><tspan class="TextParagraph" font-family="Liberation Sans, sans-serif" font-size="353px" font-weight="400"><tspan class="TextPosition" x="9988" y="13659"><tspan fill="rgb(0,0,0)" stroke="none">20</tspan></tspan></tspan></text>
 <text class="TextShape"><tspan class="TextParagraph" font-family="Liberation Sans, sans-serif" font-size="353px" font-weight="400"><tspan class="TextPosition" x="12031" y="13659"><tspan fill="rgb(0,0,0)" stroke="none">25</tspan></tspan></tspan></text>
 <text class="TextShape"><tspan class="TextParagraph" font-family="Liberation Sans, sans-serif" font-size="353px" font-weight="400"><tspan class="TextPosition" x="14075" y="13659"><tspan fill="rgb(0,0,0)" stroke="none">30</tspan></tspan></tspan></text>
 <text class="TextShape"><tspan class="TextParagraph" font-family="Liberation Sans, sans-serif" font-size="353px" font-weight="400"><tspan class="TextPosition" x="16118" y="13659"><tspan fill="rgb(0,0,0)" stroke="none">35</tspan></tspan></tspan></text>
 <text class="TextShape"><tspan class="TextParagraph" font-family="Liberation Sans, sans-serif" font-size="353px" font-weight="400"><tspan class="TextPosition" x="18162" y="13659"><tspan fill="rgb(0,0,0)" stroke="none">40</tspan></tspan></tspan></text>
 <text class="TextShape"><tspan class="TextParagraph" font-family="Liberation Sans, sans-serif" font-size="353px" font-weight="400"><tspan class="TextPosition" x="20206" y="13659"><tspan fill="rgb(0,0,0)" stroke="none">45</tspan></tspan></tspan></text>
 <text class="TextShape"><tspan class="TextParagraph" font-family="Liberation Sans, sans-serif" font-size="353px" font-weight="400"><tspan class="TextPosition" x="1564" y="13212"><tspan fill="rgb(0,0,0)" stroke="none">0</tspan></tspan></tspan></text>
 <text class="TextShape"><tspan class="TextParagraph" font-family="Liberation Sans, sans-serif" font-size="353px" font-weight="400"><tspan class="TextPosition" x="1564" y="10782"><tspan fill="rgb(0,0,0)" stroke="none">5</tspan></tspan></tspan></text>
 <text class="TextShape"><tspan class="TextParagraph" font-family="Liberation Sans, sans-serif" font-size="353px" font-weight="400"><tspan class="TextPosition" x="1379" y="8353"><tspan fill="rgb(0,0,0)" stroke="none">10</tspan></tspan></tspan></text>
 <text class="TextShape"><tspan class="TextParagraph" font-family="Liberation Sans, sans-serif" font-size="353px" font-weight="400"><tspan class="TextPosition" x="1379" y="5924"><tspan fill="rgb(0,0,0)" stroke="none">15</tspan></tspan></tspan></text>
 <text class="TextShape"><tspan class="TextParagraph" font-family="Liberation Sans, sans-serif" font-size="353px" font-weight="400"><tspan class="TextPosition" x="1379" y="3495"><tspan fill="rgb(0,0,0)" stroke="none">20</tspan></tspan></tspan></text>
 <text class="TextShape"><tspan class="TextParagraph" font-family="Liberation Sans, sans-serif" font-size="353px" font-weight="400"><tspan class="TextPosition" x="1379" y="1066"><tspan fill="rgb(0,0,0)" stroke="none">25</tspan></tspan></tspan></text>
 <path fill="none" stroke="rgb(0,69,134)" stroke-width="80" stroke-linejoin="round" d="M 7108,0 L 7908,510"/>
 <path fill="rgb(0,69,134)" stroke="none" d="M 7392,0 L 7392,394 7624,626 7624,626 7392,394 Z"/>
 <path fill="none" stroke="rgb(0,69,134)" stroke-linejoin="round" d="M 7392,0 L 7392,394 7624,626 7624,626 7392,394 Z"/>
 <path fill="none" stroke="rgb(255,211,32)" stroke-width="80" stroke-linejoin="round" d="M 9827,0 L 10627,510"/>
 <path fill="rgb(255,211,32)" stroke="none" d="M 10111,0 L 10227,394 10343,626 10111,394 Z"/>
 <path fill="none" stroke="rgb(255,211,32)" stroke-linejoin="round" d="M 10111,0 L 10227,394 10343,626 10111,394 Z"/>
 <path fill="none" stroke="rgb(255,66,14)" stroke-width="80" stroke-linejoin="round" d="M 12519,0 L 13319,510"/>
 <path fill="rgb(255,66,14)" stroke="none" d="M 12803,0 L 12919,510 13035,626 12919,510 12803,394 Z"/>
 <path fill="none" stroke="rgb(255,66,14)" stroke-linejoin="round" d="M 12803,0 L 12919,510 13035,626 12919,510 12803,394 Z"/>
 <text class="TextShape"><tspan class="TextParagraph" font-family="Liberation Sans, sans-serif" font-size="388px" font-weight="400"><tspan class="TextPosition" x="8008" y="655"><tspan fill="rgb(0,0,0)" stroke="none">Pthreads</tspan></tspan></tspan></text>
 <text class="TextShape"><tspan class="TextParagraph" font-family="Liberation Sans, sans-serif" font-size="388px" font-weight="400"><tspan class="TextPosition" x="10726" y="655"><tspan fill="rgb(0,0,0)" stroke="none">OpenMP</tspan></tspan></tspan></text>
 <text class="TextShape"><tspan class="TextParagraph" font-family="Liberation Sans, sans-serif" font-size="388px" font-weight="400"><tspan class="TextPosition" x="13419" y="655"><tspan fill="rgb(0,0,0)" stroke="none">HPX</tspan></tspan></tspan></text>
 <text class="TextShape"><tspan class="TextParagraph" font-family="Liberation Sans, sans-serif" font-size="423px" font-weight="400"><tspan class="TextPosition" x="9814" y="14534"><tspan fill="rgb(0,0,0)" stroke="none">No. Threads</tspan></tspan></tspan></text>
 <text class="TextShape" transform="translate(745,8103) rotate(-90) translate(-745,-8103)"><tspan class="TextParagraph" font-family="Liberation Sans, sans-serif" font-size="423px" font-weight="400"><tspan class="TextPosition" x="745" y="8103"><tspan fill="rgb(0,0,0)" stroke="none">Speedup</tspan></tspan></tspan></text>
 <text class="TextShape"><tspan class="TextParagraph" font-family="Liberation Serif, serif" font-size="423px" font-weight="400"><tspan class="TextPosition" x="10622" y="7581"><tspan fill="rgb(0,0,0)" stroke="none"> </tspan></tspan></tspan></text>
</svg>